/* XPM */
static char *c74d8118365d4da0f1a66516ff0aa863zwmhWhw4ammrGke5[] = {
/* columns rows colors chars-per-pixel */
"32 32 14 1 ",
"  c #9D915B",
". c black",
"X c #760000",
"o c #C97900",
"O c #BF7A41",
"+ c #C79D00",
"@ c #FF9D00",
"# c #FFD600",
"$ c #EB954E",
"% c #F5A968",
"& c #500687",
"* c #7E1CC3",
"= c #FFDCB3",
"- c white",
/* pixels */
"                                ",
"        . . .  ..               ",
"       .$.$.$..&&.              ",
"       .$$$$$.&**&.             ",
"       .$$$$.&****&.            ",
"       .$$$.&******&.           ",
"       .$$.&********&.          ",
"       ....o********o..         ",
"      .&**&o@@@@@@@@o&&...      ",
"       .&***o@@@@@@o***&&&.     ",
"        .&***************&&.    ",
"         ..&&************&&.    ",
"        ..%....&&******&&&.     ",
"         .%%.++...........      ",
"         .%=%..+++++++++.       ",
"         .%==...+####+++.       ",
"         .%==..%...+++++. .     ",
"         .%==..=%.+###+.#.+.    ",
"         .%=====%.+###.##++.    ",
"         ..%===%%.++####+++.    ",
"         .X........+++++++.     ",
"        .%.-----.*&.......      ",
"        .%.-.--.***&&.          ",
"         ...&..****&&.          ",
"         ..&*.==**.*&.          ",
"         .&&*.==**.**&.         ",
"         .o***.&*&.**o.         ",
"        .X.@@@o...o@@.          ",
"       .XXX..........X.         ",
"        .XX.      .XXX.         ",
"         ..        ...          ",
"                                ",
};
