/* XPM */
static char *result[] = {
/* columns rows colors chars-per-pixel */
"32 32 213 2 ",
"   c #6E6849",
".  c #787151",
"X  c #8A845E",
"o  c #958E66",
"O  c #958D66",
"+  c #948D66",
"@  c #948D65",
"#  c #7C7553",
"$  c #837C58",
"%  c #847D59",
"&  c #7E7856",
"*  c #7B7554",
"=  c #7C7555",
"-  c #7C7655",
";  c #7D7755",
":  c #7D7655",
">  c #7D7756",
",  c #7F7856",
"<  c #807957",
"1  c #827B58",
"2  c #827C59",
"3  c #837D59",
"4  c #857E5A",
"5  c #7B7553",
"6  c #746D4C",
"7  c #635D41",
"8  c #514D36",
"9  c #494531",
"0  c #494532",
"q  c #4B4733",
"w  c #4E4935",
"e  c #4F4A36",
"r  c #504B36",
"t  c #534E37",
"y  c #554F37",
"u  c #544F37",
"i  c #57523A",
"p  c #5D583F",
"a  c #605B41",
"s  c #605A41",
"d  c #625C42",
"f  c #686144",
"g  c #736C4C",
"h  c #635D40",
"j  c #48432E",
"k  c #363324",
"l  c #2E2B1F",
"z  c #302D20",
"x  c #322F22",
"c  c #343123",
"v  c #363224",
"b  c #363225",
"n  c #373325",
"m  c #3B3626",
"M  c #3D3826",
"N  c #3E3927",
"B  c #3E3926",
"V  c #413C29",
"C  c #47422E",
"Z  c #4B4632",
"A  c #4D4833",
"S  c #4E4934",
"D  c #4D4834",
"F  c #4F4A34",
"G  c #554F36",
"H  c #363223",
"J  c #312E21",
"K  c #2F2C20",
"L  c #353224",
"P  c #383425",
"I  c #3A3626",
"U  c #3F3A27",
"Y  c #403B28",
"T  c #46412D",
"R  c #4C4732",
"E  c #4E4A35",
"W  c #4A4632",
"Q  c #302C20",
"!  c #343023",
"~  c #383325",
"^  c #393426",
"/  c #383426",
"(  c #393526",
")  c #3D3827",
"_  c #3F3A28",
"`  c #423D2A",
"'  c #48432F",
"]  c #333023",
"[  c #3C3728",
"{  c #48402F",
"}  c #473F2E",
"|  c #363325",
" . c #3B3727",
".. c #413C28",
"X. c #3D3728",
"o. c #3F3A2A",
"O. c #3F392A",
"+. c #47412F",
"@. c #574E37",
"#. c #534B35",
"$. c #3C3727",
"%. c #3C3628",
"&. c #49412F",
"*. c #504633",
"=. c #4F4633",
"-. c #564D37",
";. c #625C3F",
":. c #5A553A",
">. c #3E3A29",
",. c #373426",
"<. c #3E3829",
"1. c #4F4532",
"2. c #584D38",
"3. c #584C37",
"4. c #5D543B",
"5. c #686243",
"6. c #5E5B3D",
"7. c #413D2B",
"8. c #3A3527",
"9. c #3D3829",
"0. c #584D37",
"q. c #574C37",
"w. c #5F5B3E",
"e. c #43402D",
"r. c #353124",
"t. c #4A4230",
"y. c #3E3929",
"u. c #4E4532",
"i. c #5D533B",
"p. c #676242",
"a. c #45412E",
"s. c #47402E",
"d. c #564E37",
"f. c #544C36",
"g. c #413C2B",
"h. c #373326",
"j. c #3C3827",
"k. c #3E3A27",
"l. c #44402D",
"z. c #625B3F",
"x. c #5C573B",
"c. c #443F2D",
"v. c #605C3E",
"b. c #393527",
"n. c #3F3929",
"m. c #3E3928",
"M. c #3D3927",
"N. c #5F5C3E",
"B. c #4A4130",
"V. c #3A3526",
"C. c #3C3826",
"Z. c #44412E",
"A. c #3A3625",
"S. c #433F2D",
"D. c #343124",
"F. c #3B3627",
"G. c #544E39",
"H. c #3B3628",
"J. c #483F2E",
"K. c #615840",
"L. c #837B59",
"P. c #4E4432",
"I. c #675D43",
"U. c #857D5A",
"Y. c #4D4431",
"T. c #675C43",
"R. c #857C5A",
"E. c #4D4935",
"W. c #665C43",
"Q. c #847C5A",
"!. c #7F7857",
"~. c #554F39",
"^. c #443E2C",
"/. c #564B36",
"(. c #5C523A",
"). c #676142",
"_. c #5E5A3D",
"`. c #433F2C",
"'. c #3D3729",
"]. c #574B37",
"[. c #4E4531",
"{. c #675E43",
"}. c #645D41",
"|. c #534B34",
" X c #544A35",
".X c #554A36",
"XX c #5B523A",
"oX c #666142",
"OX c #423E2C",
"+X c #564A36",
"@X c #5D5A3D",
"#X c #3D3828",
"$X c #504933",
"%X c #6A6245",
"&X c #867F5B",
"*X c #6A6244",
"=X c #665B42",
"-X c #655B42",
";X c #6A6145",
":X c #726C4B",
">X c #6C6747",
",X c #58533B",
"<X c #534D38",
"1X c #60573F",
"2X c #665C42",
"3X c #57533B",
"4X c #544F39",
"5X c #847C59",
"6X c #88815C",
"7X c #86805B",
"8X c #938C65",
"9X c #948C65",
"0X c white",
/* pixels */
"  . X o o o o o o o o o o o o o o O O O O + + @ @ @ @ + o X .   ",
". # $ % & * * = - ; ; : : : : > & , , , , < 1 2 2 2 2 3 4 $ 5 . ",
"X $ 6 7 8 9 0 q w e e e e e e r t y y y u i p a a s s d f g $ X ",
"o % h j k l l z x c v b b b b n m M N B B V C Z A S D F G f 4 o ",
"o & 8 H J K K z z x L n n n n n P I N U U Y V T R E S S F d 3 + ",
"o * W Q J x x ! ~ ^ n n / / / / / ( ) _ Y Y Y ` ' A w S D s 2 @ ",
"o - D ] c L L [ { } ( ] | / / / / / (  ._ Y Y ..` C A E S s 2 @ ",
"o : e / X.o.O.+.@.#.$.J c n / / / / / ( ) _ Y Y Y ` ' R A a 2 @ ",
"o - E %.&.*.=.-.;.:.>.z J ! n / / ,./ / (  ._ Y Y ..` T Z a 2 @ ",
"o - w <.1.2.3.4.5.6.7.J J ] b 8.<.<.8./ / ( ) _ Y Y Y V C p 1 + ",
"o - w 9.1.0.q.4.5.w.e.r.r.v | 9.t.t.y.,./ / (  ._ Y Y Y V i < + ",
"o - w 9.u.q.q.i.p.w.a.^ 9.o.O.s.d.f.g.h.,./ / ( j.k.Y U B u , O ",
"o - w 9.u.q.q.i.p.w.l.X.&.*.=.-.z.x.c.n h./ / / (  ._ U B y , O ",
"o - w 9.u.q.q.i.p.w.l.y.=.2.3.4.5.v.a.n n ,.,.b.9.n.m.M.B y , O ",
"o - w 9.u.q.q.i.p.w.l.y.=.0.q.4.5.N.a.n n n n 9.B.t.o.V.C.y , O ",
"o - w 9.u.q.q.i.p.w.l.y.1.q.q.i.p.w.Z.^ 9.o.O.s.d.f.g.n A.t & o ",
"o - w 9.u.q.q.i.p.w.l.y.1.q.q.i.p.w.l.[ &.*.=.-.z.x.S.b n r > o ",
"o - w 9.u.q.q.i.p.w.l.y.1.q.q.i.p.w.l.y.=.2.3.4.5.v.a.r.r.E : o ",
"o - w 9.u.q.q.i.p.w.l.y.1.q.q.i.p.w.l.y.=.0.q.4.5.N.a.r.D.w : o ",
"o - w 9.u.q.q.i.p.w.l.y.1.q.q.i.p.w.l.y.1.q.q.i.p.w.Z.n F.G., o ",
"o - w 9.u.q.q.i.p.w.l.y.1.q.q.i.p.w.l.y.1.q.q.i.p.w.l.H.J.K.L.+ ",
"o - w 9.u.q.q.i.p.w.l.y.1.q.q.i.p.w.l.y.1.q.q.i.p.w.l.<.P.I.U.@ ",
"o - w 9.u.q.q.i.p.w.l.y.1.q.q.i.p.w.l.y.1.q.q.i.p.w.l.<.P.I.U.@ ",
"o - w 9.u.q.q.i.p.w.l.y.1.q.q.i.p.w.l.y.1.q.q.i.p.w.l.9.Y.T.R.@ ",
"o - w 9.u.q.q.i.p.w.l.y.1.q.q.i.p.w.l.y.1.q.q.i.p.w.l.9.Y.T.R.@ ",
"o - w X.u.q.q.i.p.w.l.y.1.q.q.i.p.w.l.y.1.q.q.i.p.w.l.9.Y.T.R.@ ",
"o - E.X.u.q.q.i.p.w.l.y.1.q.q.i.p.w.l.y.1.q.q.i.p.w.l.9.Y.W.Q.@ ",
"o !.~.^.*././.(.)._.`.'.P.]./.(.)._.`.'.P.]./.(.)._.`.X.[.{.U.+ ",
"o % }.|. X.X.XXXoX_.OX[ Y./.+XXXoX_.OX[ Y./.+XXXoX@XOX#X$X%X&Xo ",
"X $ 6 *X{.=X-X;X:X>X,X<X1X2X2X;X:X>X,X<X1X2X2X;X:X>X3X4X7 6 $ X ",
". 5 $ &XU.5X5X4 6X7X< & 1 5X5X4 6X7X< & 1 5X5X4 6X7X< !.% $ 5 . ",
"  . X o + @ @ @ 8X9X+ o + @ @ @ 8X9X+ o + @ @ @ 8X9X+ o o X .   "
};
