/* XPM */
static char *result[] = {
/* columns rows colors chars-per-pixel */
"32 32 61 1 ",
"  c #343226",
". c #3A362A",
"X c #3D3A2D",
"o c #3F3C30",
"O c #413D2F",
"+ c #423E31",
"@ c #454233",
"# c #494535",
"$ c #4D4937",
"% c #4B4639",
"& c #4E4A3A",
"* c #514C37",
"= c #524D3C",
"- c #56513D",
"; c #59533E",
": c #565141",
"> c #5B5542",
", c #5E5843",
"< c #635C45",
"1 c #655E49",
"2 c #676047",
"3 c #686246",
"4 c #67604B",
"5 c #6C654B",
"6 c #6F684B",
"7 c #70674B",
"8 c #726A4D",
"9 c #786F4F",
"0 c #7A724F",
"q c #6D6551",
"w c #6F6850",
"e c #756D52",
"r c #786F52",
"t c #7C7354",
"y c #7C755A",
"u c #817755",
"i c #837A56",
"p c #81775A",
"a c #857B5A",
"s c #897E5B",
"d c #867F60",
"f c #898057",
"g c #8C825C",
"h c #91865F",
"j c #94895F",
"k c #8D8463",
"l c #8F876C",
"z c #918661",
"x c #958A63",
"c c #998D62",
"v c #958B69",
"b c #988E6A",
"n c #9D9065",
"m c #9D926C",
"M c #978E70",
"N c #9D9371",
"B c #A2966E",
"V c #A19771",
"C c #A29873",
"Z c #A79C78",
"A c #A99E79",
/* pixels */
"ae1err7&X:,>:>5877<:,4qeszsiuuuu",
"syqry1%:%%:,:11:=>7<1qedssssiuuu",
"zsar7:%&%+$::<1<;>1<q8pssiu77sss",
"zgaa1::%+X=7w1<>=;=<rq7rsu971uzz",
"apsse:::;<ussu91=#=397<1r875;<us",
"raza5::7ushhsshu>=9si1=<888<**=1",
"rds8:&1ushhsszxe<ijh9:<8uur<*++=",
"8ue:&%<phhzhhve$1jj9=;7assspq++;",
"87;&=:5rtusxvs:X;u7*+<ixjszNl:.:",
"91=<eut515rpsr=O*=+#<5ujcxvMy+ =",
"1,1pbzs7<<<188$O+++=113usvvp=..$",
":$5vxzhi7<;>51=$$&#;1;3urre>+XX%",
"==4zbxzvg7=;<:=-;;<,<3u917<&%.X%",
":=6sbbzvvw$;>>>1uii977u<<1:+#O+:",
"::<8zbvky>=>655ajxjsu11,<;=:+O=<",
"1,:1yae1<<<>8e7zzczju;;<<*%=+$11",
"yr2286;;<118e2efsccz7#*3<+O+$<eu",
"ta82262,11eue8tiussu**<<;+.O-usu",
"aft4,2eafjcxxe0assaw#*7<;#+#3fhs",
"ffte2;yNBcnVNdatssp7#*77<;=;tfhf",
"gftt1,tNABCVxxjfae7,*;7u81:,ihgf",
"f868wwezAABvjcjcpq;-37igge:>ihff",
"t260eraakzcVnccmp<;7isscnu&=ijhf",
",-506tkt7pbCNnbv51usncjnx6X@8jhi",
"&=,56ffw6alkkmg3<igcngai7$ X1ia<",
"&=,<eky4wky28t;@<tfgg6>&@. X;55&",
"#=53ekr4ta623*.@;,0t6&ooO. X*;,,",
"=,ftakyytyt03#X@#$>5,@o##...@-<,",
"<egxvxfattte>$X#;3;--@@#&=&#&--$",
"2tulxkkkgt82;>@-uh08,&#%:,<><,#$",
"6e1iNVbja5,->;#;8gfg5-##&,<6i8-,",
"w6,2ixht>&>&#&@;8993::#&,w88t869"
};
