/* XPM */
static char *_b4f9c71c1f94ec6a9ba3cf1e4e0e89e22Pyx2CMXFGiFR0J[] = {
/* columns rows colors chars-per-pixel */
"32 32 5 1 ",
"  c #9D915B",
". c black",
"X c #E30000",
"o c #C9C9CB",
"O c white",
/* pixels */
"                                ",
"                                ",
"                                ",
"          ..........            ",
"        ..ooOOOOOOoo..          ",
"       .oOOOOOOOOOOOOo.         ",
"      .oOOOOOOOOOOOOOOo.        ",
"     .oOOOOOOOOOoOOOOOOo.       ",
"     .OOOOOOOOOOOooOOoOO.       ",
"    .oOOOOOOOOOOOOoooOOOo.      ",
"    .OOOOOOOOOOOOOoOOOOOO.      ",
"    .OOOOOOOOOOOOoOOOOOOO.      ",
"    .OOOOOOOOOOOOOoOOOOOO.      ",
"    .OOOOOOOOOOOOOOOOOOOO.      ",
"    .oOOOOOOOOOOOOOOOOOOo.      ",
"    .ooOOOOOOOOOOOOOOOOoo.      ",
"     .oooOOOOOOOOOOOOooo.       ",
"      ...oooooooooooo...        ",
"       .o............o.         ",
"      .oOOOOOo..oOOOOOo.        ",
"      .....oo.OO.oO.....        ",
"      .o.  ...OO...  .o.        ",
"      .o. .oOOooOOo.  .o.       ",
"       .o. ...OO....  .o.       ",
"       .o. .Oo.oo.oO.  .o.      ",
"       .o. .o.oOOo.o.  .o..     ",
"      .oOO. .o....o.   .OOo.    ",
"      .o....o.    .o.  ...o.    ",
"       .oo..O.   .oo.  .oo.     ",
"        ...OOO.   ..    ..      ",
"         .OOOO.                 ",
"          ....                  "
};
