/* XPM */
static char *_b4f9c71c1f94ec6a9ba3cf1e4e0e89e22Pyx2CMXFGiFR0J[] = {
/* columns rows colors chars-per-pixel */
"32 32 5 1 ",
"  c #9D915B",
". c black",
"X c #E30000",
"o c #C9C9CB",
"O c white",
/* pixels */
"                                ",
"                                ",
"          ..........            ",
"        ..ooOOOOOOoo..          ",
"       .oOOOOOOOOOOOOo.         ",
"      .oOOOOOOOOOOOOOOo.        ",
"     .oOOOOOOOOOOOOOOOOo.       ",
"     .OOOOo..oOOOOOOOOOO.       ",
"    .oOOOo....oOOOOOOOOOo.      ",
"    .OOOo.....oOOOOOOOOOO.      ",
"    .OOO...XX.oOOOOOOOOOO.      ",
"    .OOO...XX.OOOOOOOOOOO.      ",
"    .OOOo....oOOOOOOOOOOO.      ",
"    .oo.OOOOOOOOOOOOOOOOo.      ",
"    .o..OOOOOOOOOOOOOOOoo.      ",
"     .oooOOOOOOOOOOOOooo.       ",
"      .OOooooooooooooo..        ",
"      .OOoOO..........          ",
"       ...OO.o.oo.oo.           ",
"          ..o.OOOo.o.           ",
"           ..OOo.....           ",
"            ....OOOo.           ",
"             .o......           ",
"             .o.OOOOo.          ",
"             ..o......          ",
"             ..o..ooo..         ",
"           ..o.o.....oo.        ",
"          .ooo.OOo..OOOo.       ",
"          .ooo.OOo..OOo.        ",
"           ....oo.  ...         ",
"               ..               ",
"                                ",
};
