/* XPM */
static char *_b4f9c71c1f94ec6a9ba3cf1e4e0e89e22Pyx2CMXFGiFR0J[] = {
/* columns rows colors chars-per-pixel */
"32 32 5 1 ",
"  c #9D915B",
". c black",
"X c #E30000",
"o c #C9C9CB",
"O c white",
/* pixels */
"                                ",
"                                ",
"                                ",
"            ..........          ",
"          ..ooOOOOOOoo..        ",
"         .oOOOOOOOOOOOOo.       ",
"        .oOOOOOOOOOOOOOOo.      ",
"       .oooOOoOOOOOOOOOOOo.     ",
"       .OOoooOOOOOo..oOOOO.     ",
"      .oOOoOOOOOOo....oOOOo.    ",
"      .OOoOOOOOOOo.....oOOO.    ",
"      .OOOoOOOOOOo.XX...OOO.    ",
"      .OOOOOOOOOOO.XX...OOO.    ",
"      .OOOOOOOOOOOo....oOOO.    ",
"      .oOOOOOOOOOOOOOOOO.oo.    ",
"      .ooOOOOOOOOOOOOOOO..o.    ",
"       .oooOOOOOOOOOOOOooo.     ",
"        ..oooooooooooooOO.      ",
"          ..........OOoOO.      ",
"           .oo.oo.o.OO...       ",
"           .o.oOOO.o..          ",
"           .....oOO..           ",
"           .oOOO....            ",
"           ......o.             ",
"          .oOOOO.o.             ",
"          ......o..             ",
"         ..ooo..o..             ",
"        .oo.....o.o..           ",
"       .oOOO..oOO.ooo.          ",
"        .oOO..oOO.ooo.          ",
"         ...  .oo....           ",
"               ..               ",
};
