/* XPM */
static char *_b4f9c71c1f94ec6a9ba3cf1e4e0e89e22Pyx2CMXFGiFR0J[] = {
/* columns rows colors chars-per-pixel */
"32 32 5 1 ",
"  c #9D915B",
". c black",
"X c #E30000",
"o c #C9C9CB",
"O c white",
/* pixels */
"                                ",
"           ..........           ",
"         ..ooOOOOOOoo..         ",
"        .oOOOOOOOOOOOOo.        ",
"       .oOOOOOOOOOOOOOOo.       ",
"      .oOOOOOOOOOOOOOOOOo.      ",
"      .OOOo..oOOOOo..oOOO.      ",
"     .oOOo....oOOo....oOOo.     ",
"     .OOo.....oOOo.....oOO.     ",
"     .OO...XX.oOOo.XX...OO.     ",
"     .OO...XX.OOOO.XX...OO.     ",
"     .OOo....oOOOOo....oOO.     ",
"     .oOOOOOOOOOOOOOOOOOOo.     ",
"     .ooOOOOO.oOOo.OOOOOoo.     ",
"      .oooOOO..oo..OOOooo.      ",
"       ..oooooooooooooo..       ",
"         ...OOoOOoOO...         ",
"        .o..OO.OO.OO..o.        ",
"       .oOOo..o..o..oOOo.       ",
"       .....oOOOOOOo.....       ",
"       .o.  ...OO...  .o.       ",
"       .o. .oOOooOOo. .o.       ",
"      .o.   ........   .o.      ",
"      .o.  .Oo.oo.oO.  .o.      ",
"      .o.  .o.oOOo.o.  .o.      ",
"     .oOO.  .o....o.  .OOo.     ",
"     .oOO. .O.    .O. .OOo.     ",
"      .oo. .o.    .o. .oo.      ",
"       .. .OOO.  .OOO. ..       ",
"          .OOO.  .OOO.          ",
"           ...    ...           ",
"                                ",
};
