/* XPM */
static char *result[] = {
/* columns rows colors chars-per-pixel */
"32 32 18 1 ",
"  c #7C7746",
". c #7E7847",
"X c #7F7B49",
"o c #847C4B",
"O c #8A7E4E",
"+ c #87814E",
"@ c #8A824F",
"# c #8D8451",
"$ c #8E8952",
"% c #928653",
"& c #958B56",
"* c #988C57",
"= c #978D58",
"- c #9A8E59",
"; c #9D915B",
": c #A1945E",
"> c #A49760",
", c #A59961",
/* pixels */
";;;;;%===&=$&$=;@;;;;;-:**&&*:::",
";;;;=&&&-&=====&@@&%&*::-*-&&:::",
";;;;:=$%:=====&&&  o&:::::;&%:::",
";:;--;-=-;=;=$$$+o@&;::::,:-*---",
":;--:-=:;=;-=;$+OO%-:-;::::*%***",
";-;-;;::====;;XXO%&*:;*;-;:-%***",
"=-;--;;=;;;:=o++OO%:-:-;-;;-*%%%",
"$%=;:;:=#;>-%###OO%O--;-;;-*%OOO",
"@#$***--@o+%&&*&#+##%&;;-:-=*OOO",
"@@o@&:::-o =**=@#oooO&;--::*%OOO",
"@+@;:;::;&o=-&&$$$oO%*-**;-%OOOO",
"&@*:**::;&+=;;;=&&OOO*----&%%===",
"#@-*-;;--&%%;:::;;##&&;=&+&&----",
"#@*&--&*-*%:::::,;;;-=$@%%&&----",
"#@$*;--*&%*>;::::;;=;$&@+=&;;---",
"@#&-;-;*%%::;;-;;-=;$$==@+;;:***",
"%%===&==%@:-*&-*--&&$&$&*#%:-%%%",
"**;&=;--&O-*%%O%**===&&%*-%&&&&&",
"*---;-=&*%*#O%%*%&&-====&&&+*---",
"&*----=--**OOO-;*&&&=--=***#*---",
";=;&-,;;;:-%%--;=&==;;&=;;;-&===",
"&&$-;;-;:-*&&#&;:--:;==-==*==&&&",
"@#-,;=-;;-***=-#=:;;**;==&&=====",
"$@;;;-;--*;;**;;@&%&-;=&&=&&&&&&",
"$+&-;;;;=&&=*&&;;@&=&*&&-&&&$&&&",
"&+%-;=&=-&-=&*;=;;;=&-&&==&&&&&&",
"@&;-&$&=*&=&&*-;;;&=-*=*=&&&&$$$",
"-;;=&&&=**&$$*-;&;-;-*=&&&&=&$$$",
";:;&&&&&&**&*&;*&-;*-*=*=&&$$===",
";:;&&&&&&**&*&;*&-;*-*=*=&&$$===",
";:;&&&&&&**&*&;*&-;*-*=*=&&$$===",
";;;=&$&=&*&&$&--&----;:--=##=;;;"
};
